<!-- Generator: Adobe Illustrator 19.0.1, SVG Export Plug-In  -->
<svg version="1.1"
	 xmlns="http://www.w3.org/2000/svg" xmlns:xlink="http://www.w3.org/1999/xlink" xmlns:a="http://ns.adobe.com/AdobeSVGViewerExtensions/3.0/"
	 x="0px" y="0px" width="362.6px" height="59.2px" viewBox="0 0 362.6 59.2" enable-background="new 0 0 362.6 59.2"
	 xml:space="preserve">
<defs>
</defs>
<path d="M0,0v42.3h8.5V25.4h8.5v16.9h8.5V0H0z M16.9,16.9H8.5V8.5h8.5V16.9z"/>
<rect y="50.7" width="25.4" height="8.5"/>
<path d="M32.3,0v42.3h25.4V0H32.3z M49.2,33.8h-8.5v-8.5h8.5V33.8z M49.2,16.9h-8.5V8.5h8.5V16.9z"/>
<polygon points="91.4,0 91.4,16.9 83,16.9 83,8.5 74.5,8.5 74.5,33.8 83,33.8 83,25.4 91.4,25.4 91.4,42.3 66.1,42.3 66.1,0 "/>
<path d="M116.8,0v8.5H99.9v33.8h25.4V0H116.8z M116.8,33.8h-8.5V16.9h8.5V33.8z"/>
<polygon points="142.2,8.5 142.2,16.9 159.1,16.9 159.1,25.4 142.2,25.4 142.2,33.8 159.1,33.8 159.1,42.3 133.7,42.3 133.7,0 
	159.1,0 159.1,8.5 "/>
<polygon points="176,8.5 176,16.9 192.9,16.9 192.9,25.4 176,25.4 176,42.3 167.5,42.3 167.5,0 192.9,0 192.9,8.5 "/>
<polygon points="192.9,33.8 192.9,59.2 167.5,59.2 167.5,50.7 184.4,50.7 184.4,33.8 "/>
<polygon points="209.8,33.8 218.3,33.8 218.3,16.9 226.7,16.9 226.7,42.3 201.4,42.3 201.4,0 226.7,0 226.7,8.5 209.8,8.5 "/>
<polygon points="260.5,0 260.5,42.3 252.1,42.3 252.1,25.4 243.6,25.4 243.6,42.3 235.2,42.3 235.2,0 243.6,0 243.6,16.9 
	252.1,16.9 252.1,0 "/>
<rect x="269" y="50.7" width="25.4" height="8.5"/>
<rect x="269" width="25.4" height="8.5"/>
<rect x="235.2" y="50.7" width="25.4" height="8.5"/>
<rect x="201.4" y="50.7" width="25.4" height="8.5"/>
<rect x="133.7" y="50.7" width="25.4" height="8.5"/>
<rect x="99.9" y="50.7" width="25.4" height="8.5"/>
<rect x="66.1" y="50.7" width="25.4" height="8.5"/>
<rect x="32.3" y="50.7" width="25.4" height="8.5"/>
<polygon points="285.9,25.4 285.9,33.8 294.4,33.8 294.4,42.3 269,42.3 269,33.8 277.4,33.8 277.4,25.4 269,25.4 269,16.9 
	294.4,16.9 294.4,25.4 "/>
<rect x="302.8" y="50.7" width="25.4" height="8.5"/>
<polygon points="328.2,0 328.2,42.3 302.8,42.3 302.8,16.9 311.3,16.9 311.3,33.8 319.7,33.8 319.7,8.5 302.8,8.5 302.8,0 "/>
<polygon points="362.6,0 362.6,16.9 345.7,16.9 345.7,25.4 362.6,25.4 362.6,42.3 354.1,42.3 354.1,33.8 345.7,33.8 345.7,42.3 
	337.2,42.3 337.2,0 345.7,0 345.7,8.5 354.1,8.5 354.1,0 "/>
<rect x="337.2" y="50.7" width="25.4" height="8.5"/>
</svg>
