<?xml version="1.0" encoding="utf-8"?>
<!-- Generator: Adobe Illustrator 19.1.0, SVG Export Plug-In . SVG Version: 6.00 Build 0)  -->
<!DOCTYPE svg PUBLIC "-//W3C//DTD SVG 1.1//EN" "http://www.w3.org/Graphics/SVG/1.1/DTD/svg11.dtd">
<svg version="1.1" id="Layer_1" xmlns="http://www.w3.org/2000/svg" xmlns:xlink="http://www.w3.org/1999/xlink" x="0px" y="0px"
	 viewBox="0 0 73.7 34.4" enable-background="new 0 0 73.7 34.4" xml:space="preserve">
<g>
	<polygon fill="#010101" points="14.4,0 14.4,33.6 9.6,33.6 9.6,19.2 4.8,19.2 4.8,33.6 0,33.6 0,0 4.8,0 4.8,14.4 9.6,14.4 9.6,0 	
		"/>
	<path fill="#010101" d="M19.2,0v33.6H24v-4.8h4.8v4.8h4.8V24H24v-4.8h9.6V0H19.2z M28.8,14.4H24V4.8h4.8V14.4z"/>
	<path fill="#010101" d="M38.4,0v28.8h4.8v4.8H48v-4.8h4.8V0H38.4z M48,24h-4.8V4.8H48V24z"/>
	<path fill="#010101" d="M57.6,0v33.6h4.8v-4.8h4.8v4.8H72V24h-9.6v-4.8H72V0H57.6z M67.2,14.4h-4.8V4.8h4.8V14.4z"/>
</g>
</svg>
