<!-- Generator: Adobe Illustrator 19.1.0, SVG Export Plug-In  -->
<svg version="1.1"
	 xmlns="http://www.w3.org/2000/svg" xmlns:xlink="http://www.w3.org/1999/xlink" xmlns:a="http://ns.adobe.com/AdobeSVGViewerExtensions/3.0/"
	 x="0px" y="0px" width="94.5px" height="287.525px" viewBox="0 0 94.5 287.525" style="enable-background:new 0 0 94.5 287.525;"
	 xml:space="preserve">
<defs>
</defs>
<g>
	<path d="M94.5,0c-0.024,23.442-0.065,46.885-0.068,70.327c-0.011,69.367-0.007,138.734-0.009,208.101c0,2.516,0,5.033,0,9.092
		c-16.136-18.815-31.493-36.723-47.173-55.007c-15.505,18.08-30.902,36.035-47.176,55.011c0-3.085,0-4.886,0-6.687
		C0.073,190.596,0.072,100.355,0.068,10.114C0.068,6.742,0.024,3.371,0,0C31.5,0,63,0,94.5,0z"/>
</g>
</svg>